<svg xmlns="http://www.w3.org/2000/svg" xmlns:xlink="http://www.w3.org/1999/xlink" preserveAspectRatio="xMidYMid meet" width="500" height="500" viewBox="0 0 500 500" style="width:100%;height:100%"><defs><animateMotion repeatCount="indefinite" dur="2s" begin="0s" xlink:href="#_R_G_L_3_G" fill="freeze" keyTimes="0;0.5;1" path="M275 275 C275,275 225,225 225,225 C225,225 275,275 275,275 " keyPoints="0;0.5;1" keySplines="0.333 0 0.667 1;0.333 0 0.667 1" calcMode="spline"/><animateTransform repeatCount="indefinite" dur="2s" begin="0s" xlink:href="#_R_G_L_3_G" fill="freeze" attributeName="transform" from="45" to="45" type="rotate" additive="sum" keyTimes="0;1" values="45;45" keySplines="0 0 1 1" calcMode="spline"/><animateTransform repeatCount="indefinite" dur="2s" begin="0s" xlink:href="#_R_G_L_3_G" fill="freeze" attributeName="transform" from="0.89154 0.89154" to="0.89154 0.89154" type="scale" additive="sum" keyTimes="0;1" values="0.89154 0.89154;0.89154 0.89154" keySplines="0 0 1 1" calcMode="spline"/><animateTransform repeatCount="indefinite" dur="2s" begin="0s" xlink:href="#_R_G_L_3_G" fill="freeze" attributeName="transform" from="-250 -250" to="-250 -250" type="translate" additive="sum" keyTimes="0;1" values="-250 -250;-250 -250" keySplines="0 0 1 1" calcMode="spline"/><animateMotion repeatCount="indefinite" dur="2s" begin="0s" xlink:href="#_R_G_L_2_G" fill="freeze" keyTimes="0;0.0833333;1" path="M530 -19 C530,-19 -404,855 -404,855 C-404,855 -404,855 -404,855 " keyPoints="0;1;1" keySplines="0.167 0.167 0.833 0.833;0 0 0 0" calcMode="spline"/><animateMotion repeatCount="indefinite" dur="2s" begin="0s" xlink:href="#_R_G_L_1_G" fill="freeze" keyTimes="0;0.0833333;1" path="M530 -19 C530,-19 -404,855 -404,855 C-404,855 -404,855 -404,855 " keyPoints="0;1;1" keySplines="0.167 0.167 0.833 0.833;0 0 0 0" calcMode="spline"/><animateMotion repeatCount="indefinite" dur="2s" begin="0s" xlink:href="#_R_G_L_0_G" fill="freeze" keyTimes="0;0.3;0.3833333;1" path="M848 173 C848,173 848,173 848,173 C848,173 162,723 162,723 C162,723 162,723 162,723 " keyPoints="0;0;1;1" keySplines="0.167 0.167 0.833 0.833;0.167 0.167 0.833 0.833;0 0 0 0" calcMode="spline"/><animate attributeType="XML" attributeName="opacity" dur="2s" from="0" to="1" xlink:href="#time_group"/></defs><g id="_R_G"><g id="_R_G_L_3_G"><path id="_R_G_L_3_G_D_0_P_0" stroke="#ffffff" stroke-linecap="round" stroke-linejoin="round" fill="none" stroke-width="4" stroke-opacity="1" d=" M184.97 394.8 C184.97,394.8 288.78,394.8 288.78,394.8 "/><path id="_R_G_L_3_G_D_1_P_0" stroke="#ffffff" stroke-linecap="round" stroke-linejoin="round" fill="none" stroke-width="5" stroke-opacity="1" d=" M313.73 278.06 C313.73,278.06 384.84,339.26 367.91,420.9 C367.91,420.9 356.88,366.62 300.25,363.35 "/><path id="_R_G_L_3_G_D_2_P_0" stroke="#ffffff" stroke-linecap="round" stroke-linejoin="round" fill="none" stroke-width="5" stroke-opacity="1" d=" M159 278.06 C159,278.06 87.89,339.26 104.82,420.9 C104.82,420.9 115.85,366.62 172.48,363.35 "/><path id="_R_G_L_3_G_D_3_P_0" stroke="#ffffff" stroke-linecap="round" stroke-linejoin="round" fill="none" stroke-width="4" stroke-opacity="1" d=" M173.96 179.56 C173.96,179.56 300.25,179.56 300.25,179.56 "/><path id="_R_G_L_3_G_D_4_P_0" stroke="#ffffff" stroke-linecap="round" stroke-linejoin="round" fill="none" stroke-width="4" stroke-opacity="1" d="  C186.52,155.77 186.52,155.77 186.52,155.77z "/><path id="_R_G_L_3_G_D_5_P_0" stroke="#ffffff" stroke-linecap="round" stroke-linejoin="round" fill="none" stroke-width="6" stroke-opacity="1" d=" M236.72 411.2 C236.72,411.2 195.37,411.2 195.37,411.2 C195.37,411.2 159.41,371.61 158.51,259.51 C158.23,224.6 165.71,196.67 176.14,174.81 C199.21,126.48 236.72,98.66 236.72,99.97 C236.72,98.07 315.84,147.41 314.94,259.51 C314.04,371.61 278.08,411.2 278.08,411.2 C278.08,411.2 236.72,411.2 236.72,411.2z "/><path id="_R_G_L_3_G_D_6_P_0" stroke="#ffffff" stroke-linecap="round" stroke-linejoin="round" fill="none" stroke-width="6" stroke-opacity="1" d=" M272.43 254.19 C272.43,273.91 256.44,289.9 236.72,289.9 C217,289.9 201.02,273.91 201.02,254.19 C201.02,234.47 217,218.49 236.72,218.49 C256.44,218.49 272.43,234.47 272.43,254.19z "/></g><g id="_R_G_L_2_G"><path id="_R_G_L_2_G_D_0_P_0" fill="#ff0000" fill-opacity="1" fill-rule="nonzero" d=" M-4 -200 C-4,-200 -195,-23 -195,-23 "/><path id="_R_G_L_2_G_D_1_P_0" stroke="#000000" stroke-linecap="round" stroke-linejoin="round" fill="none" stroke-width="3" stroke-opacity="1" d=" M-4 -200 C-4,-200 -195,-23 -195,-23 "/></g><g id="_R_G_L_1_G"><path id="_R_G_L_1_G_D_0_P_0" fill="#ff0000" fill-opacity="1" fill-rule="nonzero" d=" M-4 -200 C-4,-200 -195,-23 -195,-23 "/><path id="_R_G_L_1_G_D_1_P_0" stroke="#ffffff" stroke-linecap="round" stroke-linejoin="round" fill="none" stroke-width="3" stroke-opacity="1" d=" M-4 -200 C-4,-200 -195,-23 -195,-23 "/></g><g id="_R_G_L_0_G"><path id="_R_G_L_0_G_D_0_P_0" fill="#ff0000" fill-opacity="1" fill-rule="nonzero" d=" M-4 -200 C-4,-200 -195,-23 -195,-23 "/><path id="_R_G_L_0_G_D_1_P_0" stroke="#ffffff" stroke-linecap="round" stroke-linejoin="round" fill="none" stroke-width="3" stroke-opacity="1" d=" M-4 -200 C-4,-200 -195,-23 -195,-23 "/></g></g><g id="time_group"/></svg>